<?xml version="1.0" encoding="UTF-8"?>
<!-- Generator: Adobe Illustrator 16.0.0, SVG Export Plug-In . SVG Version: 6.00 Build 0)  -->
<!DOCTYPE svg PUBLIC "-//W3C//DTD SVG 1.1//EN" "http://www.w3.org/Graphics/SVG/1.1/DTD/svg11.dtd">
<svg version="1.1" id="Calque_1" xmlns="http://www.w3.org/2000/svg" xmlns:xlink="http://www.w3.org/1999/xlink" x="0px" y="0px" width="96.817px" height="96.817px" viewBox="0 0 96.817 96.817" enable-background="new 0 0 96.817 96.817" xml:space="preserve">
<g>
	<path fill="none" stroke="#FFFFFF" stroke-width="2" stroke-miterlimit="10" d="M48.409,95.816C22.268,95.816,1,74.55,1,48.409   S22.268,1,48.409,1s47.409,21.268,47.409,47.409S74.55,95.816,48.409,95.816z"/>
	<path fill="#FFFFFF" d="M48.409,7.728c-22.468,0-40.681,18.213-40.681,40.681c0,22.467,18.213,40.681,40.681,40.681   c22.467,0,40.681-18.214,40.681-40.681C89.09,25.941,70.876,7.728,48.409,7.728z M60.354,32.407c0,0-4.045,0-5.65,0   c-1.996,0-2.411,0.816-2.411,2.88c0,1.717,0,4.986,0,4.986h8.062l-0.775,8.755h-7.286v26.148H41.851V49.138h-5.432v-8.865h5.432   c0,0,0-1.274,0-6.98c0-6.55,3.503-9.973,11.273-9.973c1.273,0,7.23,0,7.23,0V32.407z"/>
</g>
</svg>