<?xml version="1.0" encoding="UTF-8"?>
<!-- Generator: Adobe Illustrator 16.0.0, SVG Export Plug-In . SVG Version: 6.00 Build 0)  -->
<!DOCTYPE svg PUBLIC "-//W3C//DTD SVG 1.1//EN" "http://www.w3.org/Graphics/SVG/1.1/DTD/svg11.dtd">
<svg version="1.1" id="Calque_1" xmlns="http://www.w3.org/2000/svg" xmlns:xlink="http://www.w3.org/1999/xlink" x="0px" y="0px" width="96.818px" height="96.817px" viewBox="0 0 96.818 96.817" enable-background="new 0 0 96.818 96.817" xml:space="preserve">
<g>
	<g>
		<path fill="none" stroke="#FFFFFF" stroke-width="2" stroke-miterlimit="10" d="M48.409,95.817C22.268,95.817,1,74.55,1,48.409    C1,22.268,22.268,1,48.409,1s47.409,21.268,47.409,47.409C95.818,74.55,74.551,95.817,48.409,95.817z"/>
		<circle fill="#FFFFFF" cx="48.409" cy="48.409" r="40.681"/>
	</g>
	<g>
		<g>
			<path fill="#8C7676" d="M56.307,42.583c0.82,0,1.959-0.426,3.135-1.821v1.61h2.709V27.793h-2.709v11.064     c-0.331,0.415-1.066,1.093-1.594,1.093c-0.582,0-0.723-0.395-0.723-0.98V27.791h-2.711v12.188     C54.414,41.418,54.854,42.583,56.307,42.583z"/>
			<path fill="#8C7676" d="M44.244,38.734c0,2.569,1.344,3.907,3.973,3.907c2.18,0,3.896-1.456,3.896-3.907V31.59     c0-2.283-1.698-3.918-3.896-3.918c-2.389,0-3.973,1.577-3.973,3.918V38.734z M47.034,31.829c0-0.799,0.368-1.391,1.13-1.391     c0.831,0,1.187,0.574,1.187,1.391v6.783c0,0.794-0.403,1.38-1.134,1.38c-0.748,0-1.183-0.612-1.183-1.38V31.829z"/>
			<polygon fill="#8C7676" points="37.777,42.372 40.83,42.372 40.83,34.354 44.382,22.606 41.282,22.606 39.326,30.506      37.22,22.606 34.146,22.606 37.777,34.354    "/>
		</g>
		<g>
			<path fill="#8C7676" d="M65.801,45.688H33.85c-3.433,0-6.215,2.784-6.215,6.218v15.702c0,3.433,2.782,6.215,6.215,6.215h31.951     c3.434,0,6.215-2.782,6.215-6.215V51.906C72.016,48.473,69.234,45.688,65.801,45.688z M38.107,69.17h-2.906V53.079h-3.01v-2.733     h8.924v2.733h-3.008V69.17z M48.449,69.17h-2.582v-1.531c-0.477,0.564-0.972,0.994-1.485,1.29     c-1.391,0.797-3.302,0.781-3.302-2.038V55.286h2.582v10.642c0,0.56,0.137,0.937,0.688,0.937c0.502,0,1.203-0.645,1.518-1.04     V55.286h2.582V69.17z M58.387,66.294c0,1.718-0.643,3.052-2.36,3.052c-0.946,0-1.733-0.345-2.452-1.242v1.066h-2.606V50.346     h2.606v6.062c0.58-0.711,1.373-1.297,2.294-1.297c1.892,0,2.519,1.598,2.519,3.479V66.294z M67.93,62.554h-4.938v2.619     c0,1.042,0.088,1.941,1.128,1.941c1.09,0,1.153-0.732,1.153-1.941v-0.965h2.657v1.044c0,2.674-1.15,4.296-3.87,4.296     c-2.466,0-3.726-1.797-3.726-4.296V59.02c0-2.413,1.591-4.084,3.92-4.084c2.478,0,3.676,1.572,3.676,4.084V62.554z"/>
			<path fill="#8C7676" d="M64.145,57.366c-0.956,0-1.153,0.673-1.153,1.627v1.404h2.281v-1.404     C65.272,58.053,65.07,57.366,64.145,57.366z"/>
			<path fill="#8C7676" d="M54.106,57.451c-0.182,0.093-0.357,0.232-0.532,0.424v8.651c0.21,0.227,0.414,0.391,0.611,0.489     c0.419,0.213,1.035,0.23,1.318-0.143c0.151-0.195,0.227-0.513,0.227-0.956v-7.171c0-0.468-0.095-0.825-0.277-1.066     C55.143,57.268,54.559,57.224,54.106,57.451z"/>
		</g>
	</g>
</g>
</svg>