<?xml version="1.0" encoding="UTF-8"?>
<!-- Generator: Adobe Illustrator 16.0.0, SVG Export Plug-In . SVG Version: 6.00 Build 0)  -->
<!DOCTYPE svg PUBLIC "-//W3C//DTD SVG 1.1//EN" "http://www.w3.org/Graphics/SVG/1.1/DTD/svg11.dtd">
<svg version="1.1" id="Calque_1" xmlns="http://www.w3.org/2000/svg" xmlns:xlink="http://www.w3.org/1999/xlink" x="0px" y="0px" width="96.817px" height="96.816px" viewBox="0 0 96.817 96.816" enable-background="new 0 0 96.817 96.816" xml:space="preserve">
<g>
	<path fill="none" stroke="#FFFFFF" stroke-width="2" stroke-miterlimit="10" d="M48.409,95.816C22.268,95.816,1,74.549,1,48.408   S22.268,1,48.409,1C74.55,1,95.817,22.268,95.817,48.408S74.55,95.816,48.409,95.816z"/>
</g>
<g>
	<g>
		<path fill="#FFFFFF" d="M63.679,46.205c-2.711,0-4.918,2.18-4.927,4.873c-0.01,2.676,2.208,4.906,4.892,4.912    c2.689,0.01,4.898-2.201,4.897-4.893C68.539,48.396,66.358,46.205,63.679,46.205z M63.679,53.574    c-1.389,0-2.507-1.096-2.503-2.455c0.002-1.414,1.086-2.504,2.487-2.506c1.372,0,2.496,1.123,2.484,2.488    C66.131,52.465,65.026,53.574,63.679,53.574z"/>
		<path fill="#FFFFFF" d="M33.456,39.158c-6.507-0.058-12.178,5.372-12.065,12.287c0.106,6.451,5.422,11.918,12.2,11.859    c6.627-0.057,11.954-5.469,11.967-12.023C45.567,44.552,40.176,39.158,33.456,39.158z M33.65,58.582    c-4.359,0.199-7.877-3.275-7.869-7.494c0.008-4.275,3.53-7.545,7.515-7.473c4.137-0.005,7.494,3.334,7.482,7.469    C40.768,55.27,37.469,58.408,33.65,58.582z"/>
		<path fill="#FFFFFF" d="M48.578,8.265c-22.229,0-40.25,18.021-40.25,40.249c0,22.229,18.021,40.25,40.25,40.25    s40.25-18.021,40.25-40.25C88.828,26.286,70.807,8.265,48.578,8.265z M71.716,64.143c-2.457,1.561-5.174,2.301-8.076,2.316    c-1.219,0.01-2.434-0.154-3.623-0.465c-2.9-0.752-5.391-2.199-7.441-4.389c-0.271-0.287-0.526-0.588-0.813-0.912    c-1.084,1.615-2.15,3.205-3.243,4.834c-1.088-1.625-2.142-3.199-3.19-4.766c-0.072,0.037-0.093,0.043-0.108,0.055    c-0.023,0.02-0.045,0.047-0.063,0.066c-2.479,2.93-5.601,4.723-9.399,5.324c-2.115,0.336-4.207,0.215-6.262-0.352    c-2.909-0.801-5.384-2.334-7.382-4.602c-1.952-2.213-3.167-4.785-3.622-7.711c-0.521-2.727,0.113-5.359,0.272-5.996    c0.46-1.854,1.261-3.559,2.361-5.126c0.077-0.11,0.104-0.309,0.067-0.44c-0.449-1.646-1.221-3.142-2.126-4.576    c-0.23-0.362-0.506-0.7-0.76-1.05c0-0.04,0-0.081,0-0.122c0.05,0.007,0.101,0.017,0.151,0.017    c3.045,0.002,6.091,0.002,9.136-0.003c0.134,0,0.28-0.055,0.395-0.127c2.141-1.374,4.42-2.461,6.815-3.308    c1.728-0.609,3.49-1.085,5.29-1.435c1.742-0.336,3.492-0.573,5.262-0.69c4.313-0.332,7.762,0.123,10.057,0.444    c1.689,0.237,3.346,0.665,4.982,1.166c2.856,0.88,5.551,2.103,8.086,3.688c0.175,0.109,0.411,0.178,0.619,0.178    c2.975,0.014,5.951,0.009,8.927,0.012c0.24,0,0.479,0.025,0.718,0.038c0,0.059,0.008,0.083-0.002,0.098    c-0.139,0.212-0.28,0.425-0.418,0.638c-1.01,1.547-1.872,3.169-2.383,4.959c-0.055,0.19-0.067,0.352,0.063,0.542    c2.65,3.805,3.494,7.981,2.387,12.485C77.421,58.883,75.158,61.961,71.716,64.143z"/>
		<path fill="#FFFFFF" d="M33.229,46.205c-2.643,0.005-4.857,2.234-4.852,4.887c0.007,2.686,2.219,4.895,4.911,4.9    c2.674,0.006,4.891-2.221,4.885-4.912C38.165,48.363,35.969,46.2,33.229,46.205z M33.29,53.6c-1.419,0.002-2.513-1.094-2.513-2.52    c0-1.402,1.093-2.488,2.506-2.49c1.391-0.002,2.511,1.109,2.518,2.5C35.805,52.467,34.677,53.596,33.29,53.6z"/>
		<path fill="#FFFFFF" d="M63.424,39.205c-6.604,0.135-11.772,5.457-11.832,12.041c0,6.688,5.428,12.152,12.092,12.125    c6.689-0.023,12.091-5.332,12.086-12.096C75.767,44.308,70.111,39.068,63.424,39.205z M63.968,58.584    c-4.342,0.166-7.814-3.295-7.813-7.49c0.002-4.244,3.502-7.551,7.505-7.479c4.139-0.008,7.493,3.326,7.493,7.463    C71.15,55.227,67.855,58.436,63.968,58.584z"/>
		<path fill="#FFFFFF" d="M53.401,40.085c2.675-2.454,5.861-3.741,9.476-4.015c-4.289-1.905-8.813-2.717-13.469-2.807    c-5.291-0.103-10.438,0.678-15.354,2.739c3.676,0.223,6.904,1.505,9.632,3.984c2.722,2.478,4.317,5.563,4.896,9.194    C49.179,45.594,50.73,42.534,53.401,40.085z"/>
	</g>
</g>
</svg>