<?xml version="1.0" encoding="UTF-8"?>
<!-- Generator: Adobe Illustrator 16.0.0, SVG Export Plug-In . SVG Version: 6.00 Build 0)  -->
<!DOCTYPE svg PUBLIC "-//W3C//DTD SVG 1.1//EN" "http://www.w3.org/Graphics/SVG/1.1/DTD/svg11.dtd">
<svg version="1.1" id="Calque_1" xmlns="http://www.w3.org/2000/svg" xmlns:xlink="http://www.w3.org/1999/xlink" x="0px" y="0px" width="96.817px" height="96.816px" viewBox="0 0 96.817 96.816" enable-background="new 0 0 96.817 96.816" xml:space="preserve">
<g>
	<path fill="none" stroke="#FFFFFF" stroke-width="2" stroke-miterlimit="10" d="M48.409,95.816C22.268,95.816,1,74.55,1,48.409   S22.268,1,48.409,1C74.55,1,95.817,22.268,95.817,48.409S74.55,95.816,48.409,95.816z"/>
	<g>
		<path fill="#FFFFFF" d="M66.786,35.389c-0.427-1.098-0.937-1.881-1.76-2.704c-0.823-0.823-1.606-1.333-2.704-1.759    c-0.829-0.322-2.074-0.705-4.367-0.81c-2.48-0.113-3.225-0.137-9.504-0.137c-6.28,0-7.023,0.024-9.504,0.137    c-2.293,0.105-3.539,0.488-4.367,0.81c-1.098,0.427-1.882,0.937-2.705,1.759c-0.822,0.823-1.332,1.606-1.759,2.704    c-0.322,0.829-0.706,2.075-0.81,4.368c-0.113,2.48-0.138,3.224-0.138,9.504s0.024,7.024,0.138,9.504    c0.104,2.293,0.487,3.538,0.81,4.367c0.427,1.099,0.937,1.882,1.759,2.704c0.823,0.823,1.607,1.333,2.705,1.76    c0.828,0.322,2.074,0.705,4.367,0.811c2.479,0.112,3.223,0.137,9.504,0.137c6.28,0,7.023-0.024,9.504-0.137    c2.293-0.105,3.538-0.488,4.367-0.811c1.098-0.427,1.881-0.937,2.704-1.76c0.823-0.822,1.333-1.605,1.76-2.704    c0.321-0.829,0.705-2.074,0.81-4.367c0.113-2.479,0.137-3.224,0.137-9.504s-0.023-7.024-0.137-9.504    C67.491,37.464,67.107,36.218,66.786,35.389z M48.451,61.338c-6.67,0-12.078-5.406-12.078-12.077    c0-6.67,5.408-12.078,12.078-12.078s12.077,5.407,12.077,12.078C60.528,55.932,55.121,61.338,48.451,61.338z M61.006,39.528    c-1.559,0-2.822-1.264-2.822-2.822c0-1.559,1.264-2.823,2.822-2.823s2.822,1.264,2.822,2.823    C63.828,38.265,62.564,39.528,61.006,39.528z"/>
		<circle fill="#FFFFFF" cx="48.451" cy="49.261" r="7.84"/>
		<path fill="#FFFFFF" d="M48.409,7.728c-22.468,0-40.682,18.213-40.682,40.681c0,22.467,18.214,40.681,40.682,40.681    c22.467,0,40.681-18.214,40.681-40.681C89.09,25.941,70.876,7.728,48.409,7.728z M71.829,58.958    c-0.114,2.503-0.512,4.213-1.094,5.709c-0.601,1.547-1.404,2.858-2.712,4.166s-2.619,2.112-4.166,2.713    c-1.496,0.581-3.206,0.979-5.709,1.093c-2.509,0.115-3.31,0.142-9.697,0.142s-7.189-0.026-9.697-0.142    c-2.504-0.114-4.213-0.512-5.709-1.093c-1.547-0.601-2.858-1.405-4.166-2.713s-2.111-2.619-2.713-4.166    c-0.582-1.496-0.979-3.206-1.094-5.709c-0.114-2.509-0.141-3.31-0.141-9.697s0.026-7.188,0.141-9.697    c0.115-2.503,0.512-4.213,1.094-5.709c0.602-1.547,1.405-2.858,2.713-4.166s2.619-2.112,4.166-2.713    c1.496-0.581,3.205-0.979,5.709-1.093c2.508-0.114,3.31-0.141,9.697-0.141s7.188,0.027,9.697,0.141    c2.503,0.115,4.213,0.512,5.709,1.093c1.547,0.601,2.858,1.405,4.166,2.713s2.111,2.619,2.712,4.166    c0.582,1.496,0.979,3.206,1.094,5.709c0.114,2.509,0.142,3.31,0.142,9.697S71.943,56.449,71.829,58.958z"/>
	</g>
</g>
</svg>